<?xml version="1.0" standalone="no"?><!DOCTYPE svg PUBLIC "-//W3C//DTD SVG 1.1//EN" "http://www.w3.org/Graphics/SVG/1.1/DTD/svg11.dtd"><svg t="1661242816908" class="icon" viewBox="0 0 1024 1024" version="1.1" xmlns="http://www.w3.org/2000/svg" p-id="4978" xmlns:xlink="http://www.w3.org/1999/xlink" width="200" height="200"><defs><style type="text/css">@font-face { font-family: feedback-iconfont; src: url("//at.alicdn.com/t/font_1031158_u69w8yhxdu.woff2?t=1630033759944") format("woff2"), url("//at.alicdn.com/t/font_1031158_u69w8yhxdu.woff?t=1630033759944") format("woff"), url("//at.alicdn.com/t/font_1031158_u69w8yhxdu.ttf?t=1630033759944") format("truetype"); }
</style></defs><path d="M1003.44 769.616h-113.28c7.248-12.592 10.88-26.8 10.88-41.024V130.048c0-21.92-8.864-42.64-24.192-58.064A81.76 81.76 0 0 0 818.8 48h-491.04c-45.168 0.032-81.792 36.912-81.84 82.448V150.72h-61.28c-21.76 0-42.336 8.528-58.048 23.952A83.344 83.344 0 0 0 102.4 233.184v598.144c0 14.624 3.616 28.832 10.88 41.024H20.56a20.72 20.72 0 0 0 0 41.408h515.632l49.984 50.368c16.144 15.84 41.936 15.84 57.664 0 13.184-13.392 15.84-34.032 6.448-50.368h107.632a20.72 20.72 0 0 0 14.528-35.328 19.728 19.728 0 0 0-14.528-6.08h-10.88c7.264-12.592 10.88-26.8 10.88-41.024v-20.704h245.52c5.248 0 10.496-2.032 14.512-6.08 4.032-4.08 6.048-8.96 6.048-14.64 0-5.28-2.016-10.56-6.048-14.624a20.336 20.336 0 0 0-14.512-5.664zM716.8 831.36c0 10.96-4.016 21.52-11.68 29.232a41.072 41.072 0 0 1-29.04 12.192h-64.912l-68.528-69.04c-10.48-10.56-25.408-14.624-39.52-10.56l-19.344-19.488c44.352-59.296 36.704-143.36-18.144-193.296a142.64 142.64 0 0 0-192.688-0.4c-54.848 49.936-62.912 133.6-18.96 193.28a142.688 142.688 0 0 0 94.336 56.848 141.296 141.296 0 0 0 106.432-27.2l19.36 19.488c-3.632 14.224 0.4 29.648 10.496 39.808l10.464 10.56H184.24c-22.56 0-40.72-18.688-40.72-41.424V232.384c0-22.336 17.744-40.208 39.52-40.208h494.24c21.76 0 39.52 17.872 39.52 40.208v598.96z m-275.76-71.056a102.416 102.416 0 0 1-98.752 26.784c-35.488-9.328-62.896-37.36-72.592-73.088a103.968 103.968 0 0 1 26.624-99.488 101.92 101.92 0 0 1 144.72 0c40.32 40.208 40.32 105.168 0 145.792z m419.28-31.68a41.36 41.36 0 0 1-40.704 41.408H757.92V233.184c0-21.92-8.864-42.64-24.192-58.064a81.728 81.728 0 0 0-58.048-23.952H287.04V130.448a41.344 41.344 0 0 1 40.72-41.424h491.84c22.576 0 40.72 18.272 40.72 41.424v598.16z m-614.4-433.296a20.72 20.72 0 0 1-20.56-20.704c0-5.68 2.016-10.56 6.048-14.624 3.84-3.888 9.072-6.08 14.512-6.08h225.36c11.28 0 20.56 9.328 20.56 20.704 0 11.36-9.28 20.704-20.56 20.704H245.92z m143.52 164.88c5.264 0 10.496 2.432 14.512 6.08 4.032 4.064 6.064 9.344 6.064 14.624 0 5.68-2.032 10.56-6.064 14.624-3.84 3.888-9.056 6.08-14.512 6.08h-143.52c-5.648 0-10.48-2.432-14.512-6.08a20.672 20.672 0 0 1-6.048-14.624c0-5.68 2.016-10.56 6.048-14.608 3.84-3.904 9.056-6.112 14.512-6.112h143.52v0.016z m184.24-103.152c5.248 0 10.496 2.448 14.112 6.08 4.032 4.064 6.048 9.36 6.048 14.624a20.112 20.112 0 0 1-20.16 20.72H245.92c-10.88 0-20.16-9.344-20.16-20.72a20.128 20.128 0 0 1 20.16-20.704h327.76z" p-id="4979"></path></svg>